<svg width="25.250977" height="3.330078" viewBox="0 0 25.251 3.33008" fill="none" xmlns="http://www.w3.org/2000/svg" xmlns:xlink="http://www.w3.org/1999/xlink">
	<desc>
			Created with Pixso.
	</desc>
	<defs/>
	<path id="Arrow 9" d="M24.6465 1.66504L23.4092 0.427734C23.3096 0.328613 23.3096 0.172852 23.4092 0.0742188C23.5078 -0.0249023 23.6631 -0.0249023 23.7627 0.0742188L25.1768 1.48828C25.2754 1.5874 25.2754 1.74268 25.1768 1.8418L23.7627 3.25586C23.6631 3.35498 23.5078 3.35498 23.4092 3.25586C23.3096 3.15723 23.3096 3.00146 23.4092 2.90234L24.6465 1.66504Z" fill="#514A7E" fill-opacity="1.000000" fill-rule="nonzero"/>
	<path id="Arrow 9" d="M0 1.41504L25 1.41504L25 1.91504L0 1.91504L0 1.41504ZM24.6465 1.66504L23.4092 0.427734C23.3096 0.328613 23.3096 0.172852 23.4092 0.0742188C23.5078 -0.0249023 23.6631 -0.0249023 23.7627 0.0742188L25.1768 1.48828C25.2754 1.5874 25.2754 1.74268 25.1768 1.8418L23.7627 3.25586C23.6631 3.35498 23.5078 3.35498 23.4092 3.25586C23.3096 3.15723 23.3096 3.00146 23.4092 2.90234L24.6465 1.66504Z" fill="#FFFDF5" fill-opacity="1.000000" fill-rule="evenodd"/>
</svg>
