<svg width="25.000000" height="25.000000" viewBox="0 0 25 25" fill="none" xmlns="http://www.w3.org/2000/svg" xmlns:xlink="http://www.w3.org/1999/xlink">
	<desc>
			Created with Pixso.
	</desc>
	<defs>
		<clipPath id="clip274_217">
			<rect id="clarity:home-line" width="25.000000" height="25.000000" fill="white" fill-opacity="0"/>
		</clipPath>
	</defs>
	<rect id="clarity:home-line" width="25.000000" height="25.000000" fill="#FFFFFF" fill-opacity="0"/>
	<g clip-path="url(#clip274_217)">
		<path id="Vector" d="M23.4102 12.007L12.9932 1.59021C12.8633 1.46094 12.6875 1.38831 12.5039 1.38831C12.3203 1.38831 12.1445 1.46094 12.0146 1.59021L1.59766 12.007C1.4834 12.1398 1.4248 12.3107 1.43164 12.4855C1.4375 12.6602 1.51074 12.826 1.63379 12.9497C1.75781 13.0734 1.92383 13.1458 2.09863 13.1526C2.27344 13.1593 2.44434 13.0999 2.57715 12.9861L12.5 3.0625L22.4238 12.993C22.5566 13.1068 22.7275 13.1663 22.9023 13.1595C23.0771 13.1527 23.2432 13.0803 23.3672 12.9567C23.4902 12.8329 23.5625 12.6671 23.5693 12.4923C23.5762 12.3176 23.5166 12.1467 23.4033 12.0139L23.4102 12.007Z" fill="#FFFDF5" fill-opacity="1.000000" fill-rule="nonzero"/>
		<path id="Vector" d="M19.4443 22.2223L15.9727 22.2223L15.9727 15.2778L9.02832 15.2778L9.02832 22.2223L5.55566 22.2223L5.55566 12.5L4.16699 13.8889L4.16699 22.2223C4.16699 22.5906 4.31348 22.9438 4.57422 23.2043C4.83398 23.4648 5.1875 23.6112 5.55566 23.6112L10.417 23.6112L10.417 16.6667L14.584 16.6667L14.584 23.6112L19.4443 23.6112C19.8135 23.6112 20.166 23.4648 20.4268 23.2043C20.6875 22.9438 20.834 22.5906 20.834 22.2223L20.834 13.7223L19.4443 12.3334L19.4443 22.2223Z" fill="#FFFDF5" fill-opacity="1.000000" fill-rule="nonzero"/>
	</g>
</svg>
