<svg width="25.000000" height="25.000000" viewBox="0 0 25 25" fill="none" xmlns="http://www.w3.org/2000/svg" xmlns:xlink="http://www.w3.org/1999/xlink">
	<desc>
			Created with Pixso.
	</desc>
	<defs>
		<clipPath id="clip274_223">
			<rect id="clarity:menu-line" width="25.000000" height="25.000000" fill="white" fill-opacity="0"/>
		</clipPath>
	</defs>
	<rect id="clarity:menu-line" width="25.000000" height="25.000000" fill="#FFFFFF" fill-opacity="0"/>
	<g clip-path="url(#clip274_223)">
		<path id="Vector" d="M22.2217 20.1389L2.77734 20.1389C2.59375 20.1389 2.41699 20.0657 2.28613 19.9355C2.15625 19.8053 2.08301 19.6287 2.08301 19.4445C2.08301 19.2603 2.15625 19.0836 2.28613 18.9534C2.41699 18.8231 2.59375 18.75 2.77734 18.75L22.2217 18.75C22.4062 18.75 22.583 18.8231 22.7129 18.9534C22.8428 19.0836 22.916 19.2603 22.916 19.4445C22.916 19.6287 22.8428 19.8053 22.7129 19.9355C22.583 20.0657 22.4062 20.1389 22.2217 20.1389Z" fill="#FFFDF5" fill-opacity="1.000000" fill-rule="nonzero"/>
		<path id="Vector" d="M22.2217 13.1945L2.77734 13.1945C2.59375 13.1945 2.41699 13.1212 2.28613 12.9911C2.15625 12.8608 2.08301 12.6842 2.08301 12.5C2.08301 12.3158 2.15625 12.1392 2.28613 12.0089C2.41699 11.8787 2.59375 11.8055 2.77734 11.8055L22.2217 11.8055C22.4062 11.8055 22.583 11.8787 22.7129 12.0089C22.8428 12.1392 22.916 12.3158 22.916 12.5C22.916 12.6842 22.8428 12.8608 22.7129 12.9911C22.583 13.1212 22.4062 13.1945 22.2217 13.1945Z" fill="#FFFDF5" fill-opacity="1.000000" fill-rule="nonzero"/>
		<path id="Vector" d="M22.2217 6.25L2.77734 6.25C2.59375 6.25 2.41699 6.17676 2.28613 6.04663C2.15625 5.91638 2.08301 5.73975 2.08301 5.55554C2.08301 5.37134 2.15625 5.1947 2.28613 5.06445C2.41699 4.9342 2.59375 4.86108 2.77734 4.86108L22.2217 4.86108C22.4062 4.86108 22.583 4.9342 22.7129 5.06445C22.8428 5.1947 22.916 5.37134 22.916 5.55554C22.916 5.73975 22.8428 5.91638 22.7129 6.04663C22.583 6.17676 22.4062 6.25 22.2217 6.25Z" fill="#FFFDF5" fill-opacity="1.000000" fill-rule="nonzero"/>
	</g>
</svg>
