<svg width="20.000000" height="20.000000" viewBox="0 0 20 20" fill="none" xmlns="http://www.w3.org/2000/svg" xmlns:xlink="http://www.w3.org/1999/xlink">
	<desc>
			Created with Pixso.
	</desc>
	<defs>
		<clipPath id="clip134_51">
			<rect id="clarity:attachment-line" width="20.000000" height="20.000000" fill="white" fill-opacity="0"/>
		</clipPath>
	</defs>
	<rect id="clarity:attachment-line" width="20.000000" height="20.000000" fill="#FFFFFF" fill-opacity="0"/>
	<g clip-path="url(#clip134_51)">
		<path id="Vector" d="M4.67773 18.1113C3.75879 18.1113 2.87695 17.75 2.22266 17.1055L2.15039 17.0332C1.82129 16.7124 1.55957 16.3286 1.38184 15.9053C1.20312 15.4814 1.11133 15.0264 1.11133 14.5669C1.11035 14.0688 1.20801 13.5762 1.39844 13.1167C1.58887 12.6567 1.86914 12.2397 2.22266 11.8892L10.834 3.37207C11.708 2.46143 12.9062 1.93066 14.1689 1.89404C15.4316 1.85791 16.6572 2.31885 17.584 3.17773C18.001 3.59424 18.332 4.08984 18.5557 4.63525C18.7803 5.18115 18.8936 5.76562 18.8887 6.35547C18.8838 7.01416 18.749 7.66553 18.4912 8.27197C18.2344 8.87842 17.8594 9.42773 17.3887 9.88916L9.65039 17.5557C9.60254 17.6201 9.54004 17.6738 9.46973 17.7124C9.39844 17.751 9.32031 17.7734 9.24023 17.7788C9.15918 17.7837 9.0791 17.7715 9.00391 17.7422C8.92871 17.7129 8.86035 17.668 8.80469 17.6099C8.74902 17.5518 8.70605 17.4824 8.67969 17.4062C8.65332 17.3301 8.64355 17.249 8.65137 17.1689C8.65918 17.0884 8.68457 17.0107 8.72559 16.9414C8.7666 16.8721 8.82227 16.8125 8.88867 16.7666L16.6055 9.1001C16.9727 8.74219 17.2646 8.31592 17.4658 7.84473C17.667 7.37354 17.7725 6.86768 17.7783 6.35547C17.7822 5.9126 17.6973 5.47266 17.5293 5.0625C17.3623 4.65234 17.1143 4.27979 16.7998 3.9668C16.082 3.31299 15.1367 2.9668 14.166 3.00293C13.1953 3.03955 12.2783 3.45508 11.6113 4.16113L3.02832 12.6777C2.77539 12.9233 2.57324 13.2168 2.43555 13.541C2.29688 13.8657 2.22461 14.2144 2.22266 14.5669C2.22168 14.8765 2.28125 15.1831 2.39941 15.4692C2.51758 15.7554 2.69238 16.0151 2.91113 16.2334L2.9834 16.3057C3.48047 16.7632 4.1377 17.0078 4.8125 16.9858C5.48828 16.9639 6.12793 16.6777 6.59473 16.189L14.0117 8.85547C14.1514 8.71387 14.2617 8.54541 14.3369 8.36035C14.4111 8.17529 14.4473 7.97705 14.4443 7.77783C14.4463 7.60449 14.4131 7.43311 14.3467 7.27246C14.2812 7.1123 14.1836 6.9668 14.0615 6.84473C13.7812 6.5874 13.4102 6.45068 13.0303 6.46387C12.6494 6.47754 12.29 6.64014 12.0283 6.9165L6.91699 11.9834C6.8125 12.0874 6.6709 12.1455 6.52344 12.145C6.37598 12.144 6.23438 12.0854 6.13086 11.9805C6.02734 11.876 5.96875 11.7344 5.96973 11.5869C5.96973 11.4395 6.0293 11.2983 6.13379 11.1943L11.2666 6.11133C11.7373 5.62891 12.3789 5.35156 13.0518 5.33789C13.7256 5.32422 14.377 5.57617 14.8672 6.03906C15.0918 6.26807 15.2686 6.54004 15.3877 6.83887C15.5059 7.13721 15.5625 7.45654 15.5557 7.77783C15.5557 8.12354 15.4854 8.46582 15.3516 8.78467C15.2168 9.10303 15.0195 9.3916 14.7725 9.6333L7.37793 16.9888C6.66113 17.7046 5.69043 18.1079 4.67773 18.1113Z" fill="#514A7E" fill-opacity="1.000000" fill-rule="nonzero"/>
	</g>
</svg>
