<svg width="20.000000" height="20.000000" viewBox="0 0 20 20" fill="none" xmlns="http://www.w3.org/2000/svg" xmlns:xlink="http://www.w3.org/1999/xlink">
	<desc>
			Created with Pixso.
	</desc>
	<defs>
		<clipPath id="clip134_55">
			<rect id="clarity:happy-face-line" width="20.000000" height="20.000000" fill="white" fill-opacity="0"/>
		</clipPath>
	</defs>
	<rect id="clarity:happy-face-line" width="20.000000" height="20.000000" fill="#FFFFFF" fill-opacity="0"/>
	<g clip-path="url(#clip134_55)">
		<path id="Vector" d="M10 1.11133C8.24219 1.11133 6.52344 1.63281 5.06152 2.60938C3.59961 3.58594 2.46094 4.97412 1.78809 6.59863C1.11523 8.22266 0.939453 10.0103 1.28223 11.7344C1.625 13.4585 2.47168 15.0425 3.71484 16.2856C4.95801 17.5288 6.54199 18.3755 8.26562 18.7183C9.99023 19.0615 11.7773 18.8853 13.4014 18.2124C15.0264 17.5396 16.4141 16.4004 17.3906 14.9385C18.3682 13.4771 18.8887 11.7583 18.8887 10C18.8887 7.64258 17.9521 5.38184 16.2852 3.71484C14.6182 2.04785 12.3574 1.11133 10 1.11133ZM10 17.7778C8.46191 17.7778 6.95801 17.3218 5.67871 16.4673C4.40039 15.6128 3.40332 14.3979 2.81445 12.9766C2.22559 11.5557 2.07227 9.9917 2.37207 8.48291C2.67188 6.97412 3.41309 5.58838 4.50098 4.50049C5.58789 3.4126 6.97363 2.67188 8.48242 2.37207C9.99121 2.07178 11.5557 2.22559 12.9766 2.81445C14.3975 3.40332 15.6123 4.3999 16.4668 5.6792C17.3223 6.95801 17.7783 8.46191 17.7783 10C17.7783 12.063 16.959 14.0415 15.5 15.5C14.041 16.9585 12.0635 17.7778 10 17.7778Z" fill="#514A7E" fill-opacity="1.000000" fill-rule="nonzero"/>
		<path id="Vector" d="M7.16211 7.7168C7.16211 8.33008 6.66406 8.82764 6.05078 8.82764C5.43652 8.82764 4.93945 8.33008 4.93945 7.7168C4.93945 7.10303 5.43652 6.60547 6.05078 6.60547C6.66406 6.60547 7.16211 7.10303 7.16211 7.7168Z" fill="#514A7E" fill-opacity="1.000000" fill-rule="evenodd"/>
		<path id="Vector" d="M15.0283 7.7168C15.0283 8.33008 14.5303 8.82764 13.917 8.82764C13.3027 8.82764 12.8057 8.33008 12.8057 7.7168C12.8057 7.10303 13.3027 6.60547 13.917 6.60547C14.5303 6.60547 15.0283 7.10303 15.0283 7.7168Z" fill="#514A7E" fill-opacity="1.000000" fill-rule="evenodd"/>
		<path id="Vector" d="M10.0723 15.6724C11.0918 15.6733 12.085 15.3516 12.9092 14.7524C13.7344 14.1538 14.3477 13.3086 14.6611 12.3389L5.4834 12.3389C5.79688 13.3086 6.41016 14.1538 7.23535 14.7524C8.05957 15.3516 9.05273 15.6733 10.0723 15.6724Z" fill="#514A7E" fill-opacity="1.000000" fill-rule="nonzero"/>
	</g>
</svg>
