<svg width="214.531250" height="429.000000" viewBox="0 0 214.531 429" fill="none" xmlns="http://www.w3.org/2000/svg" xmlns:xlink="http://www.w3.org/1999/xlink">
	<desc>
			Created with Pixso.
	</desc>
	<defs/>
	<path id="Ellipse 2" d="M213.531 0.00231934C166.83 0.216064 123.628 15.3976 88.4795 40.9908C50.3594 68.6412 24.0547 106.559 10.5674 148.219C-4.02051 192.996 -3.01367 239.133 10.5625 280.765C25.0791 325.564 53.0127 362.298 88.4658 387.999C126.253 415.499 170.062 428.806 213.531 428.998C213.834 428.999 214.137 429 214.439 429L214.531 429L214.531 214.5L214.531 0C214.197 0 213.864 0.000732422 213.531 0.00231934ZM213.531 1.00208Q179.039 1.14832 147.864 11.3909Q116.822 21.5898 89.0684 41.7992L89.0674 41.8003Q60.8105 62.2964 41.3623 89.1677Q22.1367 115.732 11.5186 148.527Q0.707031 181.714 0.766602 214.88Q0.824219 247.677 11.5127 280.455Q22.2744 313.663 41.8213 340.463Q61.1445 366.957 89.0527 387.189Q117.104 407.604 148.478 417.807Q179.392 427.86 213.531 427.998L213.531 214.5L213.531 1.00208Z" fill="#514A7E" fill-opacity="1.000000" fill-rule="evenodd"/>
</svg>
