<svg width="10.000000" height="10.000000" viewBox="0 0 10 10" fill="none" xmlns="http://www.w3.org/2000/svg" xmlns:xlink="http://www.w3.org/1999/xlink">
	<desc>
			Created with Pixso.
	</desc>
	<defs>
		<clipPath id="clip278_795">
			<rect id="ep:arrow-right" width="10.000000" height="10.000000" transform="translate(10.000000 0.000000) rotate(90.000000)" fill="white" fill-opacity="0"/>
		</clipPath>
	</defs>
	<rect id="ep:arrow-right" width="10.000000" height="10.000000" transform="translate(10.000000 0.000000) rotate(90.000000)" fill="#FFFFFF" fill-opacity="0"/>
	<g clip-path="url(#clip278_795)">
		<path id="Vector" d="M8.54199 3.32861C8.48535 3.27441 8.41113 3.24365 8.33301 3.24365C8.25488 3.24365 8.17969 3.27441 8.12402 3.32861L5 6.37451L1.87598 3.32861C1.82031 3.27441 1.74512 3.24365 1.66699 3.24365C1.58887 3.24365 1.51465 3.27441 1.45801 3.32861C1.43164 3.35498 1.40918 3.38672 1.39453 3.42188C1.37988 3.45703 1.37207 3.49463 1.37207 3.53223C1.37207 3.57031 1.37988 3.60791 1.39453 3.64307C1.40918 3.67822 1.43164 3.70947 1.45801 3.73633L4.78125 6.9751C4.83984 7.03174 4.91797 7.06348 5 7.06348C5.08105 7.06348 5.15918 7.03174 5.21777 6.9751L8.54102 3.73633C8.56836 3.70947 8.58984 3.67822 8.60449 3.64307C8.61914 3.60791 8.62695 3.57031 8.62695 3.53223C8.62695 3.49463 8.61914 3.45703 8.60449 3.42188C8.58984 3.38672 8.56836 3.35498 8.54102 3.32861L8.54199 3.32861Z" fill="#FFFDF5" fill-opacity="0.800000" fill-rule="nonzero"/>
	</g>
</svg>
